<?xml version="1.0" encoding="UTF-8"?>
<svg viewBox="0 0 1200 400" xmlns="http://www.w3.org/2000/svg">
  <!-- Commitinho Character Circle -->
  <circle cx="200" cy="200" r="150" fill="#1e3a8a" stroke="#0891b2" stroke-width="6"/>
  <circle cx="200" cy="200" r="130" fill="#0891b2" stroke="#22d3ee" stroke-width="4"/>
  
  <!-- Face -->
  <circle cx="200" cy="200" r="110" fill="#fb923c"/>
  
  <!-- Hair -->
  <path d="M140 130 Q200 100 260 130 Q250 110 200 105 Q150 110 140 130" fill="#7c2d12"/>
  <path d="M120 150 Q140 120 160 140" fill="#7c2d12"/>
  <path d="M240 140 Q260 120 280 150" fill="#7c2d12"/>
  
  <!-- Glasses Frame -->
  <circle cx="170" cy="180" r="25" fill="none" stroke="#0891b2" stroke-width="4"/>
  <circle cx="230" cy="180" r="25" fill="none" stroke="#0891b2" stroke-width="4"/>
  <line x1="195" y1="180" x2="205" y2="180" stroke="#0891b2" stroke-width="4"/>
  
  <!-- Glasses Lenses -->
  <circle cx="170" cy="180" r="20" fill="#ffffff" opacity="0.8"/>
  <circle cx="230" cy="180" r="20" fill="#ffffff" opacity="0.8"/>
  
  <!-- Eyes -->
  <circle cx="170" cy="180" r="12" fill="#1e293b"/>
  <circle cx="230" cy="180" r="12" fill="#1e293b"/>
  <circle cx="172" cy="178" r="4" fill="#ffffff"/>
  <circle cx="232" cy="178" r="4" fill="#ffffff"/>
  
  <!-- Mouth -->
  <path d="M170 220 Q200 245 230 220" fill="none" stroke="#1e293b" stroke-width="3" stroke-linecap="round"/>
  <path d="M170 220 Q200 235 230 220" fill="#ffffff"/>
  
  <!-- Ears -->
  <ellipse cx="110" cy="190" rx="15" ry="20" fill="#fb923c"/>
  <ellipse cx="290" cy="190" rx="15" ry="20" fill="#fb923c"/>
  
  <!-- Text "Commitinho" -->
  <text x="400" y="160" font-family="Arial, sans-serif" font-size="80" font-weight="bold" fill="#22d3ee">Commitinho</text>
  
  <!-- Shadow effect on text -->
  <text x="405" y="165" font-family="Arial, sans-serif" font-size="80" font-weight="bold" fill="#1e3a8a" opacity="0.3">Commitinho</text>
  
  <!-- Decorative dots -->
  <circle cx="850" cy="120" r="8" fill="#4ade80"/>
  <circle cx="900" cy="100" r="6" fill="#22d3ee"/>
  <circle cx="950" cy="130" r="10" fill="#4ade80"/>
  <circle cx="1000" cy="110" r="7" fill="#22d3ee"/>
  <circle cx="1050" cy="140" r="9" fill="#4ade80"/>
</svg>